<svg height="800" width="800" xmlns="http://www.w3.org/2000/svg" viewBox="0 0 383.273 383.273" xml:space="preserve" fill="#ffffff"><path d="M194.223 208.347c-8.752-7.901-20.935-12.938-33.262-13.899-6.951 11.052-21.072 18.353-36.691 18.353-15.618 0-29.737-7.238-36.688-18.287-20.401 1.608-39.704 14.536-43.356 29.559L20.45 322.035h42.848c4.971 0 9 4.029 9 9s-4.029 9-9 9H9.1c-.031 0-.061-.163-.092-.163-.13 0-.262-.184-.392-.19-.197-.008-.394-.014-.587-.035-.119-.013-.239-.037-.359-.055a9.073 9.073 0 0 1-.662-.12c-.045-.01-.089-.013-.133-.024-.087-.021-.168-.052-.254-.075a9.058 9.058 0 0 1-.469-.139 8.934 8.934 0 0 1-.407-.149 9.507 9.507 0 0 1-.404-.166 9.297 9.297 0 0 1-1.487-.841 9.271 9.271 0 0 1-1.323-1.13 9.079 9.079 0 0 1-2.174-3.759 9.396 9.396 0 0 1-.278-1.352c-.015-.117-.03-.234-.04-.353a8.767 8.767 0 0 1-.028-.563c-.002-.073-.011-.146-.011-.22 0-.043.006-.087.007-.13.003-.172.013-.345.026-.518.01-.144.021-.291.037-.433.016-.131.038-.269.06-.4a9.17 9.17 0 0 1 .103-.554c.009-.039.013-.105.022-.144l26.479-108.98c5.917-24.333 34.521-43.506 65.12-43.506h1.238c3.844 0 7.264 2.526 8.512 6.162 2.12 6.173 10.585 12.506 22.666 12.506 12.082 0 20.548-6.305 22.667-12.478 1.249-3.636 4.668-6.19 8.512-6.19h1.238c18.075 0 36.616 7.109 49.597 18.828 3.689 3.331 3.98 9.134.65 12.825-3.331 3.687-9.022 3.988-12.711.658zm138.489 62.807-10.039 7.271a71.025 71.025 0 0 1 .015 16.204l10.024 7.263c7.511 4.881 7.228 16.431-.805 30.342-2.963 5.133-10.914 17.07-20.726 17.071-1.803 0-3.566-.414-5.139-1.201l-11.256-5.03a69.796 69.796 0 0 1-14.106 8.168l-1.268 12.218c-.462 8.951-10.607 14.485-26.679 14.485-16.105 0-26.244-5.542-26.681-14.511l-1.266-12.192a69.73 69.73 0 0 1-14.104-8.167l-11.288 5.044a11.504 11.504 0 0 1-5.109 1.187c-9.812 0-17.763-11.938-20.726-17.072-8.053-13.946-8.323-25.498-.773-30.36l9.992-7.239a70.98 70.98 0 0 1 .016-16.21l-10.031-7.267c-2.879-1.882-6.794-6.271-4.951-15.819.855-4.431 2.896-9.589 5.747-14.526 2.963-5.133 10.915-17.07 20.727-17.07 1.798 0 3.558.412 5.128 1.195l11.39 5.09a69.77 69.77 0 0 1 13.968-8.07l1.281-12.343c.436-8.971 10.574-14.514 26.681-14.514 16.073 0 26.218 5.534 26.679 14.488l1.283 12.369a69.79 69.79 0 0 1 13.969 8.07l11.377-5.084a11.485 11.485 0 0 1 5.14-1.202c9.812 0 17.763 11.938 20.726 17.07 8.033 13.912 8.317 25.462.804 30.342zm-25.064-4.069 12.224-8.856c-.442-1.862-1.5-4.864-3.552-8.417-2.05-3.551-4.12-5.969-5.512-7.282l-13.836 6.182a8.999 8.999 0 0 1-9.619-1.462 52.122 52.122 0 0 0-17.909-10.346 9.001 9.001 0 0 1-6.083-7.602l-1.563-15.069c-1.834-.548-4.962-1.133-9.064-1.133-4.101 0-7.229.585-9.063 1.133l-1.563 15.069a9.002 9.002 0 0 1-6.084 7.603c-6.608 2.221-12.633 5.701-17.908 10.345a8.998 8.998 0 0 1-9.618 1.461l-13.836-6.182c-1.391 1.314-3.462 3.731-5.513 7.283-2.05 3.551-3.108 6.553-3.551 8.415l12.225 8.856a8.998 8.998 0 0 1 3.542 9.07 52.876 52.876 0 0 0-.022 20.773 9.001 9.001 0 0 1-3.545 9.054l-12.2 8.839c.442 1.862 1.5 4.863 3.551 8.415 2.051 3.553 4.122 5.971 5.513 7.285l13.728-6.134a8.998 8.998 0 0 1 9.635 1.476 52.086 52.086 0 0 0 18.012 10.431 8.999 8.999 0 0 1 6.085 7.602l1.549 14.92c1.834.548 4.963 1.132 9.064 1.132s7.23-.585 9.064-1.133l1.548-14.918a9.001 9.001 0 0 1 6.086-7.603c6.658-2.237 12.718-5.747 18.014-10.432a9.002 9.002 0 0 1 9.636-1.477l13.726 6.134c1.391-1.314 3.461-3.731 5.512-7.283 2.051-3.553 3.109-6.556 3.552-8.418l-12.2-8.838a9 9 0 0 1-3.546-9.049 52.886 52.886 0 0 0-.021-20.776c-.698-3.455.686-7 3.542-9.068zm-23.205 19.519c0 17.483-14.225 31.708-31.708 31.708-17.484 0-31.709-14.225-31.709-31.708s14.225-31.708 31.709-31.708 31.708 14.224 31.708 31.708zm-18 0c0-7.559-6.149-13.708-13.708-13.708s-13.709 6.149-13.709 13.708 6.15 13.708 13.709 13.708 13.708-6.15 13.708-13.708zm14.367-127.489 8.197-4.781a9.001 9.001 0 0 0-9.069-15.549l-31.734 18.508c-.054.031-.102.069-.155.102a8.453 8.453 0 0 0-.506.331c-.097.068-.189.14-.283.211a9.194 9.194 0 0 0-.392.317c-.107.092-.21.188-.313.284a8.916 8.916 0 0 0-2.559 4.43 8.826 8.826 0 0 0-.244 1.855c-.002.082-.012.161-.012.243 0 .039.005.077.006.115.002.189.014.378.029.567.008.111.014.222.026.331.02.178.05.354.081.531.021.12.039.241.064.359.033.154.076.306.118.458.038.139.073.278.118.415.042.128.092.254.14.381.058.155.116.311.183.462.049.112.106.223.161.334.078.158.156.316.243.469.021.037.037.076.059.113.03.052.068.095.099.146.147.24.304.472.471.696.064.086.125.173.191.256.211.262.433.514.671.75.084.084.175.158.262.238a9.056 9.056 0 0 0 .862.702c.195.139.397.269.603.393.089.053.174.111.264.16.298.165.607.313.925.444.072.029.145.052.218.08a8.75 8.75 0 0 0 1.83.483c.113.018.226.039.34.052.284.033.573.05.864.056.061.001.121.012.181.012l.036-.002c62.032.024 112.49 50.499 112.49 112.537 0 4.971 4.029 9 9 9s9-4.029 9-9c-.002-62.345-43.935-114.611-102.465-127.489zM35.558 75.249a9 9 0 0 1 8.214-9.723 9.004 9.004 0 0 1 4.339.717c7.847-34.82 39.004-60.916 76.16-60.916 37.154 0 68.309 26.091 76.16 60.908a8.893 8.893 0 0 1 4.341-.708c4.953.416 8.63 4.77 8.213 9.723l-1.172 13.92a9.001 9.001 0 0 1-10.694 8.076c-2.661 14.892-9.584 28.717-20.172 39.885-14.899 15.715-35.027 24.37-56.676 24.37-21.657 0-42.528-9.111-57.263-24.998a77.858 77.858 0 0 1-18.744-35.126 76.821 76.821 0 0 1-.85-4.128 8.908 8.908 0 0 1-1.727.167 9 9 0 0 1-8.958-8.246l-1.171-13.921zm43.584 11.786h8.756c7.762 0 14.319-5.184 14.319-11.5s-6.557-11.5-14.319-11.5h-8.756c-7.761 0-14.318 5.184-14.318 11.5s6.557 11.5 14.318 11.5zm101.847 16.138c-3.6 1.273-7.505 1.862-11.589 1.862h-8.757c-14.401 0-26.628-8-30.792-20h-11.16c-4.164 12-16.391 20-30.792 20h-8.756c-4.081 0-7.984-.587-11.582-1.859.346.989.709 2.09 1.105 3.056a59.915 59.915 0 0 0 11.54 18.031c11.34 12.227 27.401 19.238 44.065 19.238 16.659 0 32.147-6.66 43.613-18.755 5.908-6.231 10.334-13.657 13.105-21.573zM169.4 64.035h-8.757c-7.762 0-14.319 5.184-14.319 11.5s6.557 11.5 14.319 11.5h8.757c7.761 0 14.318-5.184 14.318-11.5s-6.557-11.5-14.318-11.5zM77.293 46.052c.612-.032 1.228-.017 1.849-.017h8.756c14.402 0 26.63 9 30.793 21h11.158c4.163-12 16.391-21 30.793-21h8.757c.621 0 1.237-.015 1.849.017-5.176-6.488-11.66-11.918-19.056-15.817-7.912.162-15.237 3.407-20.684 9.195a8.972 8.972 0 0 1-6.556 2.833 9 9 0 0 1-6.554-15.167 46.754 46.754 0 0 1 3.946-3.719c-18.217.577-34.407 9.331-45.051 22.675zm49.478 67.983h-5.001c-4.971 0-9 4.029-9 9s4.029 9 9 9h5.001c4.971 0 9-4.029 9-9s-4.029-9-9-9z"/></svg>